<svg height="512" viewBox="0 0 60 60" width="512" xmlns="http://www.w3.org/2000/svg"><g id="Page-1" fill="none" fill-rule="evenodd"><g id="020---Contact-Book" fill-rule="nonzero"><path id="Shape" d="m13 1h44c1.1045695 0 2 .8954305 2 2v54c0 1.1045695-.8954305 2-2 2h-44z" fill="#e8edfc"/><path id="Shape" d="m57 1h-3c1.1045695 0 2 .8954305 2 2v54c0 1.1045695-.8954305 2-2 2h3c1.1045695 0 2-.8954305 2-2v-54c0-1.1045695-.8954305-2-2-2z" fill="#cad9fc"/><path id="Shape" d="m5 12v45c.0032948 1.1032019.89679813 1.9967052 2 2h6v-58h-6c-1.10320187.0032948-1.9967052.89679813-2 2z" fill="#a4c2f7"/><rect id="Rectangle-path" fill="#e8edfc" height="4" rx="2" width="8" x="1" y="8"/><rect id="Rectangle-path" fill="#e8edfc" height="4" rx="2" width="8" x="1" y="28"/><rect id="Rectangle-path" fill="#e8edfc" height="4" rx="2" width="8" x="1" y="48"/><path id="Shape" d="m32.74 33.3c-2.3544618-2.2327276-3.954639-5.1436659-4.578-8.328-.1033018-.6321003.1061733-1.2750622.562-1.725l2.3-2.3c.6581738-.6586983.7746826-1.6844724.281-2.474l-4.055-6.488c-.546416-.8742058-1.6678119-1.189842-2.59-.729l-6.521 3.261c-.752325.3729074-1.1896321 1.1779046-1.093 2.012.486 4.01 2.343 12.809 11 21.466s17.456 10.513 21.466 11c.8340954.0966321 1.6390926-.340675 2.012-1.093l3.261-6.521c.460842-.9221881.1452058-2.043584-.729-2.59l-6.488-4.055c-.7895276-.4936826-1.8153017-.3771738-2.474.281l-2.3 2.3c-.4499378.4558267-1.0928997.6653018-1.725.562-3.1848144-.6234413-6.0961428-2.2239903-8.329-4.579z" fill="#a4c2f7"/><path id="Shape" d="m10 59c-1.10320187-.0032948-1.9967052-.8967981-2-2v-5h-2c-1.1045695 0-2-.8954305-2-2s.8954305-2 2-2h2v-16h-2c-1.1045695 0-2-.8954305-2-2s.8954305-2 2-2h2v-16h-2c-1.1045695 0-2-.8954305-2-2s.8954305-2 2-2h2v-5c.0032948-1.10320187.89679813-1.9967052 2-2h-3c-1.10320187.0032948-1.9967052.89679813-2 2v5h-2c-1.1045695 0-2 .8954305-2 2s.8954305 2 2 2h2v16h-2c-1.1045695 0-2 .8954305-2 2s.8954305 2 2 2h2v16h-2c-1.1045695 0-2 .8954305-2 2s.8954305 2 2 2h2v5c.0032948 1.1032019.89679813 1.9967052 2 2z" fill="#fff"/><path id="Rectangle-path" d="m4 20h2v8h-2z" fill="#fff"/><g fill="#428dff"><path id="Shape" d="m57 0h-50c-1.65685425 0-3 1.34314575-3 3v4h-1c-1.65685425 0-3 1.34314575-3 3 0 1.6568542 1.34314575 3 3 3h1v7c0 .5522847.44771525 1 1 1s1-.4477153 1-1v-7h1c1.65685425 0 3-1.3431458 3-3 0-1.65685425-1.34314575-3-3-3h-1v-4c0-.55228475.44771525-1 1-1h5v56h-5c-.55228475 0-1-.4477153-1-1v-4h1c1.6568542-.0000001 2.99999987-1.3431458 2.99999987-3s-1.34314567-2.9999999-2.99999987-3h-1v-14h1c1.65685425 0 3-1.3431458 3-3s-1.34314575-3-3-3h-4c-1.65685425 0-3 1.3431458-3 3s1.34314575 3 3 3h1v14h-1c-1.6568542.0000001-2.99999987 1.3431458-2.99999987 3s1.34314567 2.9999999 2.99999987 3h1v4c0 1.6568542 1.34314575 3 3 3h50c1.6568542 0 3-1.3431458 3-3v-54c0-1.65685425-1.3431458-3-3-3zm-50 9c.55228475 0 1 .44771525 1 1 0 .5522847-.44771525 1-1 1h-4c-.55228475 0-1-.4477153-1-1 0-.55228475.44771525-1 1-1zm-4 22c-.55228475 0-1-.4477153-1-1s.44771525-1 1-1h4c.55228475 0 1 .4477153 1 1s-.44771525 1-1 1zm0 20c-.55228475 0-1-.4477153-1-1s.44771525-1 1-1h4c.55228475 0 1 .4477153 1 1s-.44771525 1-1 1zm55 6c0 .5522847-.4477153 1-1 1h-43v-56h43c.5522847 0 1 .44771525 1 1z"/><path id="Shape" d="m5.02 25c-.55228475.0027614-1.00223858-.4427153-1.005-.995s.44271525-1.0022386.995-1.005h.01c.55228475 0 1 .4477153 1 1s-.44771525 1-1 1z"/><path id="Shape" d="m54.59 37.934-6.49-4.055c-1.1829105-.7469534-2.7260044-.571479-3.711.422l-2.3 2.3c-.2217701.2268333-.5396215.3322869-.853.283-2.9793932-.5886533-5.7010622-2.0917584-7.786-4.3-2.2080611-2.0846718-3.7111518-4.8059652-4.3-7.785-.0480103-.3137597.0576485-.6314801.284-.854l2.3-2.3c.993086-.9850934 1.168919-2.5276854.423-3.711l-4.057-6.487c-.8165102-1.3161217-2.5031239-1.79050889-3.886-1.093l-6.52 3.26c-1.130814.5615679-1.7868137 1.7731061-1.639 3.027.676 5.589 3.183 13.953 11.284 22.053s16.467 10.606 22.061 11.285c1.2542469.149658 2.4667836-.5068824 3.027-1.639l3.261-6.521c.6964899-1.383826.2198029-3.0704645-1.098-3.885zm-.7 2.991-3.261 6.521c-.1825813.3769247-.5841262.5965698-1 .547-5.277-.64-13.183-3.018-20.879-10.713s-10.066-15.603-10.706-20.88c-.0466146-.4155673.1726434-.815673.548-1l6.52-3.26c.4622131-.2336006 1.0262989-.0756566 1.3.364l4.05 6.496c.2490286.3943493.1903876.9088097-.141 1.237l-2.3 2.3c-.6837878.6800124-.997344 1.648238-.842 2.6.6583105 3.3867336 2.3548355 6.4844471 4.854 8.863 2.3786508 2.5026653 5.4779272 4.2020768 8.867 4.862.9518652.1567107 1.9207052-.1570444 2.6-.842l2.3-2.3c.3293161-.3284101.8415722-.3864326 1.236-.14l6.494 4.05c.43911.2714518.5994207.8325394.37 1.295z"/><path id="Shape" d="m35.807 21.147c4.6330271.7621464 8.2680305 4.3871005 9.043 9.018.0805394.4814297.4968804.8343685.985.835.0553052.0002068.1105203-.0044782.165-.014.5444611-.0912737.9119584-.6064862.821-1.151-.915584-5.4741549-5.2116314-9.7597515-10.688-10.662-.545105-.0900224-1.0599776.278895-1.15.824s.278895 1.0599776.824 1.15z"/><path id="Shape" d="m35.861 17.108c6.8105129.8419402 12.1769212 6.2058759 13.022 13.016.0624768.4999598.487152.8753539.991.876.042137.0003398.0842444-.0023337.126-.008.5477838-.0686288.936322-.5681779.868-1.116-.9564474-7.7191505-7.0393966-13.7992146-14.759-14.752-.5403144-.054588-1.0254374.3320292-1.0927963.8709005-.0673589.5388712.3076699 1.0330074.8447963 1.1130995z"/><path id="Shape" d="m35.892 13.105c8.9898713.8987325 16.1023938 8.0058186 17.008 16.995.051318.5106104.4808175.8994932.994.9.0333028.0020172.0666972.0020172.1 0 .2646032-.0252873.5082513-.1548808.6771226-.3601532.1688713-.2052725.249069-.4693316.2228774-.7338468-1.001389-9.9397147-8.8664366-17.7980711-18.807-18.791-.3554793-.0357266-.7030156.1209067-.9116953.4108975-.2086797.2899907-.2467995.6692826-.1.995.1467995.3257173.456216.5483759.8116953.5841025z"/></g></g></g></svg>